<?xml version="1.0" encoding="UTF-8"?>
<svg xmlns="http://www.w3.org/2000/svg" xmlns:xlink="http://www.w3.org/1999/xlink" width="50px" height="50px" viewBox="0 0 50 50" version="1.1">
<g id="surface1">
<path style=" stroke:none;fill-rule:nonzero;fill:rgb(60.392157%,17.647059%,18.431373%);fill-opacity:1;" d="M 11.816406 13.6875 C 11.1875 13.6875 10.878906 13.195312 10.65625 12.835938 C 10.445312 12.5 10.335938 12.355469 10.15625 12.355469 C 9.976562 12.355469 9.867188 12.5 9.65625 12.835938 C 9.433594 13.195312 9.125 13.6875 8.496094 13.6875 C 7.867188 13.6875 7.558594 13.195312 7.332031 12.835938 C 7.125 12.5 7.015625 12.355469 6.835938 12.355469 C 6.65625 12.355469 6.546875 12.5 6.339844 12.835938 C 6.113281 13.195312 5.804688 13.6875 5.175781 13.6875 C 4.546875 13.6875 4.238281 13.195312 4.015625 12.835938 C 3.804688 12.5 3.695312 12.351562 3.515625 12.351562 C 3.300781 12.351562 3.125 12.179688 3.125 11.960938 C 3.125 11.75 3.300781 11.570312 3.515625 11.570312 C 4.144531 11.570312 4.453125 12.066406 4.679688 12.421875 C 4.886719 12.757812 4.996094 12.90625 5.175781 12.90625 C 5.355469 12.90625 5.464844 12.757812 5.671875 12.421875 C 5.894531 12.0625 6.203125 11.570312 6.835938 11.570312 C 7.46875 11.570312 7.773438 12.066406 8 12.421875 C 8.207031 12.757812 8.316406 12.90625 8.496094 12.90625 C 8.675781 12.90625 8.785156 12.757812 8.992188 12.421875 C 9.21875 12.0625 9.523438 11.570312 10.15625 11.570312 C 10.789062 11.570312 11.09375 12.066406 11.320312 12.421875 C 11.527344 12.757812 11.636719 12.90625 11.816406 12.90625 C 12.03125 12.90625 12.207031 13.082031 12.207031 13.296875 C 12.207031 13.511719 12.03125 13.6875 11.816406 13.6875 Z M 12.886719 11.246094 C 12.210938 11.246094 11.875 10.765625 11.632812 10.414062 C 11.382812 10.058594 11.253906 9.917969 11.011719 9.917969 C 10.765625 9.917969 10.644531 10.0625 10.390625 10.414062 C 10.140625 10.765625 9.804688 11.246094 9.136719 11.246094 C 8.460938 11.246094 8.125 10.765625 7.882812 10.414062 C 7.632812 10.058594 7.503906 9.917969 7.261719 9.917969 C 7.015625 9.917969 6.894531 10.0625 6.640625 10.414062 C 6.390625 10.765625 6.054688 11.246094 5.386719 11.246094 C 4.71875 11.246094 4.375 10.765625 4.132812 10.414062 C 3.882812 10.058594 3.753906 9.917969 3.511719 9.917969 C 3.296875 9.917969 3.121094 9.742188 3.121094 9.527344 C 3.121094 9.3125 3.296875 9.136719 3.511719 9.136719 C 4.183594 9.136719 4.523438 9.613281 4.765625 9.964844 C 5.015625 10.324219 5.140625 10.464844 5.386719 10.464844 C 5.628906 10.464844 5.753906 10.316406 6.007812 9.964844 C 6.253906 9.613281 6.59375 9.136719 7.261719 9.136719 C 7.929688 9.136719 8.273438 9.613281 8.515625 9.964844 C 8.765625 10.324219 8.890625 10.464844 9.136719 10.464844 C 9.378906 10.464844 9.503906 10.316406 9.757812 9.964844 C 10.003906 9.613281 10.34375 9.136719 11.011719 9.136719 C 11.679688 9.136719 12.023438 9.613281 12.265625 9.964844 C 12.515625 10.324219 12.640625 10.464844 12.886719 10.464844 C 13.101562 10.464844 13.277344 10.640625 13.277344 10.855469 C 13.277344 11.070312 13.101562 11.246094 12.886719 11.246094 Z M 12.886719 11.246094 "/>
<path style=" stroke:none;fill-rule:nonzero;fill:rgb(100%,92.156863%,30.196078%);fill-opacity:1;" d="M 15.625 5.113281 C 15.625 5.976562 16.324219 6.675781 17.1875 6.675781 C 18.050781 6.675781 18.75 5.976562 18.75 5.113281 C 18.75 4.25 18.050781 3.550781 17.1875 3.550781 C 16.324219 3.550781 15.625 4.25 15.625 5.113281 Z M 15.625 5.113281 "/>
<path style=" stroke:none;fill-rule:nonzero;fill:rgb(60.392157%,17.647059%,18.431373%);fill-opacity:1;" d="M 17.1875 7.066406 C 16.109375 7.066406 15.234375 6.191406 15.234375 5.113281 C 15.234375 4.03125 16.109375 3.160156 17.1875 3.160156 C 18.265625 3.160156 19.140625 4.03125 19.140625 5.113281 C 19.140625 6.191406 18.265625 7.066406 17.1875 7.066406 Z M 17.1875 3.941406 C 16.542969 3.941406 16.015625 4.46875 16.015625 5.113281 C 16.015625 5.757812 16.542969 6.285156 17.1875 6.285156 C 17.832031 6.285156 18.359375 5.757812 18.359375 5.113281 C 18.359375 4.46875 17.832031 3.941406 17.1875 3.941406 Z M 17.1875 3.941406 "/>
<path style=" stroke:none;fill-rule:nonzero;fill:rgb(76.078431%,94.901961%,100%);fill-opacity:1;" d="M 18.011719 11.460938 L 33.636719 11.460938 L 33.636719 21.421875 L 18.011719 21.421875 Z M 18.011719 11.460938 "/>
<path style=" stroke:none;fill-rule:nonzero;fill:rgb(100%,67.45098%,76.078431%);fill-opacity:1;" d="M 26.726562 14.023438 L 20.03125 21.421875 L 32.046875 21.421875 Z M 26.726562 14.023438 "/>
<path style=" stroke:none;fill-rule:nonzero;fill:rgb(85.490196%,89.803922%,100%);fill-opacity:1;" d="M 30.464844 23.667969 L 18.011719 23.667969 L 25.355469 15.5625 Z M 30.464844 23.667969 "/>
<path style=" stroke:none;fill-rule:nonzero;fill:rgb(100%,100%,100%);fill-opacity:1;" d="M 28.8125 16.949219 L 26.851562 16.464844 L 24.3125 16.71875 L 26.726562 14.054688 Z M 28.8125 16.949219 "/>
<path style=" stroke:none;fill-rule:nonzero;fill:rgb(100%,100%,100%);fill-opacity:1;" d="M 23.328125 17.796875 L 24.445312 18.613281 L 25.351562 17.929688 L 27.367188 18.753906 L 25.355469 15.566406 Z M 23.328125 17.796875 "/>
<path style=" stroke:none;fill-rule:nonzero;fill:rgb(60.392157%,17.647059%,18.431373%);fill-opacity:1;" d="M 21.480469 15.21875 C 20.835938 15.21875 20.308594 14.691406 20.308594 14.046875 C 20.308594 13.402344 20.835938 12.875 21.480469 12.875 C 22.125 12.875 22.652344 13.402344 22.652344 14.046875 C 22.652344 14.691406 22.128906 15.21875 21.480469 15.21875 Z M 21.480469 13.65625 C 21.265625 13.65625 21.089844 13.832031 21.089844 14.046875 C 21.089844 14.261719 21.265625 14.4375 21.480469 14.4375 C 21.695312 14.4375 21.871094 14.261719 21.871094 14.046875 C 21.871094 13.832031 21.695312 13.65625 21.480469 13.65625 Z M 21.480469 13.65625 "/>
<path style=" stroke:none;fill-rule:nonzero;fill:rgb(100%,92.156863%,30.196078%);fill-opacity:1;" d="M 20.699219 14.046875 C 20.699219 14.480469 21.046875 14.828125 21.480469 14.828125 C 21.910156 14.828125 22.261719 14.480469 22.261719 14.046875 C 22.261719 13.617188 21.910156 13.265625 21.480469 13.265625 C 21.046875 13.265625 20.699219 13.617188 20.699219 14.046875 Z M 20.699219 14.046875 "/>
<path style=" stroke:none;fill-rule:nonzero;fill:rgb(100%,67.45098%,76.078431%);fill-opacity:1;" d="M 39.105469 46.421875 L 10.980469 46.421875 C 10.121094 46.421875 9.417969 45.71875 9.417969 44.859375 L 9.417969 22.984375 C 9.417969 22.125 10.121094 21.421875 10.980469 21.421875 L 39.105469 21.421875 C 39.964844 21.421875 40.667969 22.125 40.667969 22.984375 L 40.667969 44.859375 C 40.667969 45.71875 39.964844 46.421875 39.105469 46.421875 Z M 39.105469 46.421875 "/>
<path style=" stroke:none;fill-rule:nonzero;fill:rgb(100%,92.156863%,30.196078%);fill-opacity:1;" d="M 39.105469 46.421875 L 10.980469 46.421875 C 10.121094 46.421875 9.417969 45.71875 9.417969 44.859375 L 9.417969 40.171875 L 40.667969 40.171875 L 40.667969 44.859375 C 40.667969 45.71875 39.964844 46.421875 39.105469 46.421875 Z M 39.105469 46.421875 "/>
<path style=" stroke:none;fill-rule:nonzero;fill:rgb(85.490196%,89.803922%,100%);fill-opacity:1;" d="M 15.621094 33.96875 C 15.621094 39.175781 19.839844 43.394531 25.042969 43.394531 C 30.25 43.394531 34.46875 39.175781 34.46875 33.96875 C 34.46875 28.765625 30.25 24.546875 25.042969 24.546875 C 19.839844 24.546875 15.621094 28.765625 15.621094 33.96875 Z M 15.621094 33.96875 "/>
<path style=" stroke:none;fill-rule:nonzero;fill:rgb(100%,100%,100%);fill-opacity:1;" d="M 18.011719 33.96875 C 18.011719 37.851562 21.160156 41 25.042969 41 C 28.925781 41 32.074219 37.851562 32.074219 33.96875 C 32.074219 30.085938 28.925781 26.9375 25.042969 26.9375 C 21.160156 26.9375 18.011719 30.085938 18.011719 33.96875 Z M 18.011719 33.96875 "/>
<path style=" stroke:none;fill-rule:nonzero;fill:rgb(100%,100%,100%);fill-opacity:1;" d="M 15.230469 26.351562 L 12.398438 26.351562 C 11.96875 26.351562 11.617188 26 11.617188 25.570312 C 11.617188 25.140625 11.96875 24.789062 12.398438 24.789062 L 15.230469 24.789062 C 15.660156 24.789062 16.011719 25.140625 16.011719 25.570312 C 16.011719 26 15.660156 26.351562 15.230469 26.351562 Z M 15.230469 26.351562 "/>
<path style=" stroke:none;fill-rule:nonzero;fill:rgb(100%,75.294118%,94.117647%);fill-opacity:1;" d="M 22.867188 33.960938 C 22.867188 35.253906 23.914062 36.304688 25.210938 36.304688 C 26.503906 36.304688 27.554688 35.253906 27.554688 33.960938 C 27.554688 32.664062 26.503906 31.617188 25.210938 31.617188 C 23.914062 31.617188 22.867188 32.664062 22.867188 33.960938 Z M 22.867188 33.960938 "/>
<path style=" stroke:none;fill-rule:nonzero;fill:rgb(60.392157%,17.647059%,18.431373%);fill-opacity:1;" d="M 25.042969 41.390625 C 29.136719 41.390625 32.464844 38.0625 32.464844 33.96875 C 32.464844 29.878906 29.136719 26.546875 25.042969 26.546875 C 20.953125 26.546875 17.621094 29.878906 17.621094 33.96875 C 17.621094 38.0625 20.953125 41.390625 25.042969 41.390625 Z M 25.042969 27.328125 C 28.707031 27.328125 31.683594 30.308594 31.683594 33.96875 C 31.683594 37.632812 28.707031 40.609375 25.042969 40.609375 C 21.382812 40.609375 18.402344 37.632812 18.402344 33.96875 C 18.402344 30.308594 21.382812 27.328125 25.042969 27.328125 Z M 15.230469 24.398438 L 12.398438 24.398438 C 11.753906 24.398438 11.226562 24.925781 11.226562 25.570312 C 11.226562 26.214844 11.753906 26.742188 12.398438 26.742188 L 15.230469 26.742188 C 15.875 26.742188 16.402344 26.214844 16.402344 25.570312 C 16.402344 24.921875 15.878906 24.398438 15.230469 24.398438 Z M 15.230469 25.960938 L 12.398438 25.960938 C 12.183594 25.960938 12.007812 25.785156 12.007812 25.570312 C 12.007812 25.355469 12.183594 25.179688 12.398438 25.179688 L 15.230469 25.179688 C 15.445312 25.179688 15.621094 25.355469 15.621094 25.570312 C 15.621094 25.785156 15.445312 25.960938 15.230469 25.960938 Z M 15.230469 25.960938 "/>
<path style=" stroke:none;fill-rule:nonzero;fill:rgb(60.392157%,17.647059%,18.431373%);fill-opacity:1;" d="M 25.210938 36.695312 C 26.71875 36.695312 27.945312 35.46875 27.945312 33.960938 C 27.945312 32.453125 26.71875 31.226562 25.210938 31.226562 C 23.703125 31.226562 22.476562 32.453125 22.476562 33.960938 C 22.476562 35.46875 23.703125 36.695312 25.210938 36.695312 Z M 25.210938 32.007812 C 26.289062 32.007812 27.164062 32.882812 27.164062 33.960938 C 27.164062 35.039062 26.289062 35.914062 25.210938 35.914062 C 24.128906 35.914062 23.257812 35.039062 23.257812 33.960938 C 23.257812 32.882812 24.128906 32.007812 25.210938 32.007812 Z M 25.210938 32.007812 "/>
<path style=" stroke:none;fill-rule:nonzero;fill:rgb(60.392157%,17.647059%,18.431373%);fill-opacity:1;" d="M 46.4375 33.511719 C 46.191406 33.511719 46.070312 33.363281 45.816406 33.011719 C 45.566406 32.660156 45.230469 32.183594 44.558594 32.183594 C 43.890625 32.183594 43.550781 32.660156 43.304688 33.011719 C 43.054688 33.367188 42.929688 33.511719 42.683594 33.511719 C 42.441406 33.511719 42.320312 33.363281 42.066406 33.011719 C 41.851562 32.710938 41.566406 32.304688 41.058594 32.207031 L 41.058594 30.59375 C 41.171875 30.671875 41.277344 30.808594 41.425781 31.019531 C 41.675781 31.371094 42.011719 31.851562 42.679688 31.851562 C 43.347656 31.851562 43.691406 31.371094 43.933594 31.019531 C 44.183594 30.664062 44.3125 30.523438 44.554688 30.523438 C 44.800781 30.523438 44.921875 30.667969 45.175781 31.019531 C 45.425781 31.371094 45.761719 31.851562 46.429688 31.851562 C 46.644531 31.851562 46.820312 31.675781 46.820312 31.460938 C 46.820312 31.246094 46.644531 31.070312 46.429688 31.070312 C 46.1875 31.070312 46.0625 30.921875 45.8125 30.570312 C 45.5625 30.21875 45.226562 29.742188 44.554688 29.742188 C 43.886719 29.742188 43.542969 30.21875 43.300781 30.570312 C 43.050781 30.925781 42.925781 31.070312 42.679688 31.070312 C 42.4375 31.070312 42.3125 30.921875 42.058594 30.570312 C 41.84375 30.269531 41.5625 29.863281 41.054688 29.765625 L 41.054688 22.984375 C 41.054688 21.90625 40.179688 21.03125 39.101562 21.03125 L 34.023438 21.03125 L 34.023438 11.460938 C 34.023438 11.246094 33.847656 11.070312 33.632812 11.070312 L 18.007812 11.070312 C 17.792969 11.070312 17.617188 11.246094 17.617188 11.460938 L 17.617188 21.03125 L 10.976562 21.03125 C 9.898438 21.03125 9.023438 21.90625 9.023438 22.984375 L 9.023438 44.859375 C 9.023438 45.296875 9.167969 45.703125 9.414062 46.03125 L 4.941406 46.03125 C 4.726562 46.03125 4.550781 46.207031 4.550781 46.421875 C 4.550781 46.636719 4.726562 46.8125 4.941406 46.8125 L 45.175781 46.8125 C 45.390625 46.8125 45.566406 46.636719 45.566406 46.421875 C 45.566406 46.207031 45.390625 46.03125 45.175781 46.03125 L 40.664062 46.03125 C 40.90625 45.703125 41.054688 45.296875 41.054688 44.859375 L 41.054688 33.03125 C 41.167969 33.109375 41.273438 33.246094 41.421875 33.457031 C 41.667969 33.808594 42.007812 34.289062 42.675781 34.289062 C 43.34375 34.289062 43.6875 33.808594 43.929688 33.457031 C 44.179688 33.101562 44.304688 32.960938 44.550781 32.960938 C 44.792969 32.960938 44.917969 33.105469 45.171875 33.457031 C 45.421875 33.808594 45.757812 34.289062 46.425781 34.289062 C 46.640625 34.289062 46.816406 34.109375 46.816406 33.898438 C 46.816406 33.679688 46.648438 33.511719 46.4375 33.511719 Z M 18.402344 11.851562 L 33.246094 11.851562 L 33.246094 21.03125 L 32.242188 21.03125 L 27.046875 13.792969 C 26.976562 13.695312 26.871094 13.636719 26.753906 13.632812 C 26.636719 13.628906 26.519531 13.671875 26.441406 13.757812 L 19.851562 21.03125 L 18.402344 21.03125 Z M 26.332031 17.84375 L 26.390625 17.929688 L 25.503906 17.570312 C 25.375 17.515625 25.230469 17.535156 25.121094 17.617188 L 24.449219 18.125 L 23.921875 17.738281 L 24.507812 17.089844 L 25.308594 16.207031 L 25.785156 16.960938 Z M 25.84375 15.605469 L 26.695312 14.667969 L 27.875 16.308594 L 26.941406 16.078125 C 26.914062 16.070312 26.878906 16.070312 26.851562 16.070312 L 26.8125 16.070312 L 26.183594 16.132812 Z M 24.214844 18.925781 C 24.351562 19.027344 24.539062 19.027344 24.679688 18.921875 L 25.40625 18.367188 L 27.101562 19.0625 L 28.335938 21.023438 L 20.929688 21.023438 L 23.378906 18.316406 Z M 27.703125 18.554688 C 27.703125 18.550781 27.699219 18.542969 27.699219 18.542969 L 26.980469 17.414062 L 26.644531 16.875 L 26.820312 16.855469 L 28.597656 17.296875 L 31.277344 21.023438 L 29.261719 21.023438 Z M 40.277344 44.859375 C 40.277344 45.503906 39.757812 46.03125 39.105469 46.03125 L 10.980469 46.03125 C 10.335938 46.03125 9.808594 45.503906 9.808594 44.859375 L 9.808594 40.5625 L 17.777344 40.5625 C 19.574219 42.539062 22.167969 43.785156 25.042969 43.785156 C 27.917969 43.785156 30.511719 42.539062 32.308594 40.5625 L 40.277344 40.5625 Z M 16.011719 33.96875 C 16.011719 28.988281 20.0625 24.9375 25.042969 24.9375 C 30.023438 24.9375 34.078125 28.988281 34.078125 33.96875 C 34.078125 38.949219 30.023438 43.003906 25.042969 43.003906 C 20.0625 43.003906 16.011719 38.949219 16.011719 33.96875 Z M 40.277344 39.78125 L 32.949219 39.78125 C 34.148438 38.15625 34.859375 36.140625 34.859375 33.96875 C 34.859375 28.558594 30.453125 24.15625 25.042969 24.15625 C 19.632812 24.15625 15.230469 28.558594 15.230469 33.96875 C 15.230469 36.140625 15.9375 38.15625 17.140625 39.78125 L 9.808594 39.78125 L 9.808594 22.984375 C 9.808594 22.339844 10.335938 21.8125 10.980469 21.8125 L 39.105469 21.8125 C 39.75 21.8125 40.277344 22.339844 40.277344 22.984375 Z M 40.277344 39.78125 "/>
<path style=" stroke:none;fill-rule:nonzero;fill:rgb(100%,100%,100%);fill-opacity:1;" d="M 9.808594 27.59375 C 10.09375 27.523438 10.34375 27.441406 10.542969 27.328125 C 11.089844 27.023438 11.359375 26.679688 11.507812 26.332031 C 11.332031 26.128906 11.226562 25.859375 11.226562 25.570312 C 11.226562 24.980469 11.671875 24.488281 12.242188 24.410156 C 12.652344 24.023438 13.417969 23.710938 14.9375 23.53125 C 17.773438 23.195312 18.324219 22.320312 18.394531 21.804688 L 10.980469 21.804688 C 10.335938 21.804688 9.808594 22.335938 9.808594 22.976562 Z M 9.808594 27.59375 "/>
</g>
</svg>
